<?xml version="1.0" standalone="no"?><!DOCTYPE svg PUBLIC "-//W3C//DTD SVG 1.1//EN" "http://www.w3.org/Graphics/SVG/1.1/DTD/svg11.dtd"><svg t="1692546268606" class="icon" viewBox="0 0 1024 1024" version="1.1" xmlns="http://www.w3.org/2000/svg" p-id="2065" xmlns:xlink="http://www.w3.org/1999/xlink" width="200" height="200"><path d="M512 842.666667H224.853333A75.52 75.52 0 0 1 149.333333 768a67.84 67.84 0 0 1 5.973334-29.013333 74.24 74.24 0 0 1 50.773333-40.106667l12.8-3.84a457.386667 457.386667 0 0 0 204.373333-119.04H426.666667c3.84 0 8.106667 2.56 11.946666 3.84l14.08 3.84 14.506667 2.56 11.946667 2.133333H561.92l16.213333-3.413333 11.946667-3.413333 14.506667-4.693334c8.533333-2.986667 17.066667-6.826667 25.6-10.666666a268.8 268.8 0 1 0-267.52-18.773334 398.933333 398.933333 0 0 1-159.573334 87.893334l-12.8 3.413333a136.96 136.96 0 0 0-93.44 77.226667A143.786667 143.786667 0 0 0 85.333333 768a139.52 139.52 0 0 0 139.52 139.52H512a32 32 0 0 0 0-64zM307.2 322.133333a204.8 204.8 0 1 1 293.546667 184.32 202.666667 202.666667 0 0 1-143.36 12.8l-8.106667-2.133333h-2.56l-20.053333-8.106667a203.946667 203.946667 0 0 1-119.466667-186.88z" fill="#212121" p-id="2066"></path><path d="M906.666667 741.546667h-101.12V640a32.426667 32.426667 0 0 0-32.426667-32 32 32 0 0 0-31.573333 32v101.546667H640a32 32 0 0 0-32 31.573333 32.426667 32.426667 0 0 0 32 32.426667h101.546667v101.12a32 32 0 0 0 31.573333 32 32.426667 32.426667 0 0 0 32.426667-32v-101.12h101.12a32.426667 32.426667 0 0 0 32-32.426667 32 32 0 0 0-32-31.573333z" fill="#212121" p-id="2067"></path></svg>