<?xml version="1.0" standalone="no"?><!DOCTYPE svg PUBLIC "-//W3C//DTD SVG 1.1//EN" "http://www.w3.org/Graphics/SVG/1.1/DTD/svg11.dtd"><svg t="1695438648984" class="icon" viewBox="0 0 1024 1024" version="1.1" xmlns="http://www.w3.org/2000/svg" p-id="4248" xmlns:xlink="http://www.w3.org/1999/xlink" width="200" height="200"><path d="M196.923 0h630.154A196.923 196.923 0 0 1 1024 196.923v630.154A196.923 196.923 0 0 1 827.077 1024H196.923A196.923 196.923 0 0 1 0 827.077V196.923A196.923 196.923 0 0 1 196.923 0z m0 78.77A118.154 118.154 0 0 0 78.77 196.922v630.154A118.154 118.154 0 0 0 196.923 945.23h630.154A118.154 118.154 0 0 0 945.23 827.077V196.923A118.154 118.154 0 0 0 827.077 78.77H196.923z m584.901 258.205a36.51 36.51 0 0 1 1.26 51.633l-299.48 313.108c-0.118 0.157-0.394 0.236-0.63 0.472l-0.394 0.552c-2.166 2.126-4.726 3.23-7.208 4.726-1.575 0.866-2.796 2.166-4.41 2.836a35.8 35.8 0 0 1-27.491 0.078c-1.26-0.512-2.285-1.614-3.545-2.284-2.757-1.457-5.592-2.836-8.034-5.12-0.197-0.158-0.276-0.433-0.512-0.67-0.197-0.118-0.394-0.196-0.552-0.354L279.985 545.359a36.43 36.43 0 0 1 0.945-51.633 36.391 36.391 0 0 1 51.634 0.945l124.455 129.103 273.093-285.618a36.549 36.549 0 0 1 51.712-1.181z" p-id="4249"></path></svg>