<?xml version="1.0" standalone="no"?><!DOCTYPE svg PUBLIC "-//W3C//DTD SVG 1.1//EN" "http://www.w3.org/Graphics/SVG/1.1/DTD/svg11.dtd"><svg t="1688914603063" class="icon" viewBox="0 0 1024 1024" version="1.1" xmlns="http://www.w3.org/2000/svg" p-id="1648" xmlns:xlink="http://www.w3.org/1999/xlink" width="200" height="200"><path d="M618.666667 288a32 32 0 0 1 0 64H320a32 32 0 0 1 0-64h298.666667zM704 480a32 32 0 0 1 0 64H320a32 32 0 0 1 0-64h384zM533.333333 672a32 32 0 0 1 0 64H320a32 32 0 0 1 0-64h213.333333z" fill="#111111" p-id="1649"></path><path d="M768 85.333333a128 128 0 0 1 128 128v597.333334a128 128 0 0 1-128 128H256a128 128 0 0 1-128-128V213.333333a128 128 0 0 1 128-128h512z m0 64H256a64 64 0 0 0-64 64v597.333334a64 64 0 0 0 64 64h512a64 64 0 0 0 64-64V213.333333a64 64 0 0 0-64-64z" fill="#111111" p-id="1650"></path></svg>